<?xml version="1.0" encoding="UTF-8" standalone="no"?>
<!DOCTYPE svg PUBLIC "-//W3C//DTD SVG 1.1//EN"
 "http://www.w3.org/Graphics/SVG/1.1/DTD/svg11.dtd">
<!-- Generated by graphviz version 12.2.1 (0)
 -->
<!-- Pages: 1 -->
<svg width="573pt" height="675pt"
 viewBox="0.00 0.00 573.32 674.50" xmlns="http://www.w3.org/2000/svg" xmlns:xlink="http://www.w3.org/1999/xlink">
<g id="graph0" class="graph" transform="scale(1 1) rotate(0) translate(4 670.5)">
<polygon fill="white" stroke="none" points="-4,4 -4,-670.5 569.32,-670.5 569.32,4 -4,4"/>
<g id="clust7" class="cluster">
<title>cluster_trocqdb</title>
<polygon fill="#dffdc0" stroke="black" points="409,-509.25 409,-658.5 505,-658.5 505,-509.25 409,-509.25"/>
<text text-anchor="middle" x="457" y="-641.2" font-family="Times,serif" font-size="14.00">trocq.db</text>
</g>
<g id="clust8" class="cluster">
<title>cluster_constraints</title>
<g id="a_clust8"><a xlink:href="https://github.com/rocq-community/trocq/tree/master/elpi/constraints" xlink:title="constraints">
<polygon fill="lightyellow" stroke="black" points="8,-208 8,-501.25 214,-501.25 214,-208 8,-208"/>
<text text-anchor="middle" x="111" y="-483.95" font-family="Times,serif" font-size="14.00">constraints</text>
</a>
</g>
</g>
<!-- class -->
<g id="node1" class="node">
<title>class</title>
<g id="a_node1"><a xlink:href="https://github.com/rocq-community/trocq/blob/master/elpi/class.elpi" xlink:title="class">
<polygon fill="none" stroke="black" points="477,-625.25 423,-625.25 423,-589.25 477,-589.25 477,-625.25"/>
<text text-anchor="middle" x="450" y="-602.58" font-family="Times,serif" font-size="14.00">class</text>
</a>
</g>
</g>
<!-- database -->
<g id="node4" class="node">
<title>database</title>
<g id="a_node4"><a xlink:href="https://github.com/rocq-community/trocq/blob/master/elpi/database.elpi" xlink:title="database">
<polygon fill="none" stroke="black" points="497.25,-553.25 416.75,-553.25 416.75,-517.25 497.25,-517.25 497.25,-553.25"/>
<text text-anchor="middle" x="457" y="-530.58" font-family="Times,serif" font-size="14.00">database</text>
</a>
</g>
</g>
<!-- class&#45;&gt;database -->
<g id="edge6" class="edge">
<title>class&#45;&gt;database</title>
<path fill="none" stroke="black" d="M451.73,-588.95C452.46,-581.66 453.33,-572.98 454.15,-564.79"/>
<polygon fill="black" stroke="black" points="457.63,-565.16 455.14,-554.86 450.66,-564.46 457.63,-565.16"/>
</g>
<!-- aterm -->
<g id="node5" class="node">
<title>aterm</title>
<g id="a_node5"><a xlink:href="https://github.com/rocq-community/trocq/blob/master/elpi/aterm.elpi" xlink:title="aterm">
<ellipse fill="none" stroke="black" cx="232" cy="-535.25" rx="41.21" ry="18"/>
<text text-anchor="middle" x="232" y="-530.58" font-family="Times,serif" font-size="14.00">aterm</text>
</a>
</g>
</g>
<!-- class&#45;&gt;aterm -->
<g id="edge7" class="edge">
<title>class&#45;&gt;aterm</title>
<path fill="none" stroke="black" stroke-dasharray="5,2" d="M422.77,-597.74C389.68,-587.37 332.17,-569.25 283,-553.25 280.32,-552.38 277.56,-551.48 274.79,-550.56"/>
<polygon fill="black" stroke="black" points="276.11,-547.31 265.52,-547.5 273.91,-553.96 276.11,-547.31"/>
</g>
<!-- util -->
<g id="node2" class="node">
<title>util</title>
<g id="a_node2"><a xlink:href="https://github.com/rocq-community/trocq/blob/master/elpi/util.elpi" xlink:title="util">
<polygon fill="none" stroke="black" points="315,-625.25 261,-625.25 261,-589.25 315,-589.25 315,-625.25"/>
<text text-anchor="middle" x="288" y="-602.58" font-family="Times,serif" font-size="14.00">util</text>
</a>
</g>
</g>
<!-- util&#45;rocq -->
<g id="node3" class="node">
<title>util&#45;rocq</title>
<g id="a_node3"><a xlink:href="https://github.com/rocq-community/trocq/blob/master/elpi/util-rocq.elpi" xlink:title="util&#45;rocq">
<ellipse fill="none" stroke="black" cx="345" cy="-535.25" rx="53.31" ry="18"/>
<text text-anchor="middle" x="345" y="-530.58" font-family="Times,serif" font-size="14.00">util&#45;rocq</text>
</a>
</g>
</g>
<!-- util&#45;&gt;util&#45;rocq -->
<g id="edge1" class="edge">
<title>util&#45;&gt;util&#45;rocq</title>
<path fill="none" stroke="black" d="M302.09,-588.95C308.82,-580.69 316.99,-570.64 324.4,-561.55"/>
<polygon fill="black" stroke="black" points="326.91,-564.01 330.51,-554.05 321.48,-559.59 326.91,-564.01"/>
</g>
<!-- util&#45;&gt;aterm -->
<g id="edge2" class="edge">
<title>util&#45;&gt;aterm</title>
<path fill="none" stroke="black" d="M274.16,-588.95C267.45,-580.57 259.28,-570.35 251.92,-561.15"/>
<polygon fill="black" stroke="black" points="254.84,-559.2 245.86,-553.58 249.38,-563.57 254.84,-559.2"/>
</g>
<!-- simple&#45;graph -->
<g id="node8" class="node">
<title>simple&#45;graph</title>
<g id="a_node8"><a xlink:href="https://github.com/rocq-community/trocq/blob/master/elpi/constraints/simple-graph.elpi" xlink:title="simple&#45;graph">
<ellipse fill="none" stroke="black" cx="129" cy="-378" rx="76.99" ry="18"/>
<text text-anchor="middle" x="129" y="-373.32" font-family="Times,serif" font-size="14.00">simple&#45;graph</text>
</a>
</g>
</g>
<!-- util&#45;rocq&#45;&gt;simple&#45;graph -->
<g id="edge3" class="edge">
<title>util&#45;rocq&#45;&gt;simple&#45;graph</title>
<path fill="none" stroke="black" d="M317.6,-519.43C308.29,-514.05 297.98,-507.7 289,-501.25 250.81,-473.81 246.46,-460.43 209,-432 194.98,-421.36 178.91,-410.48 164.87,-401.36"/>
<polygon fill="black" stroke="black" points="167.1,-398.64 156.8,-396.18 163.32,-404.53 167.1,-398.64"/>
</g>
<!-- data -->
<g id="node12" class="node">
<title>data</title>
<g id="a_node12"><a xlink:href="https://github.com/rocq-community/trocq/blob/master/elpi/data.elpi" xlink:title="data">
<ellipse fill="none" stroke="black" cx="532" cy="-450" rx="33.32" ry="18"/>
<text text-anchor="middle" x="532" y="-445.32" font-family="Times,serif" font-size="14.00">data</text>
</a>
</g>
</g>
<!-- util&#45;rocq&#45;&gt;data -->
<g id="edge4" class="edge">
<title>util&#45;rocq&#45;&gt;data</title>
<path fill="none" stroke="black" d="M374.61,-519.85C384.12,-515.79 394.82,-511.79 405,-509.25 441.38,-500.16 455.72,-518.53 489,-501.25 499.74,-495.67 508.92,-486.17 516.01,-476.92"/>
<polygon fill="black" stroke="black" points="518.85,-478.98 521.75,-468.79 513.13,-474.94 518.85,-478.98"/>
</g>
<!-- param&#45;class&#45;util -->
<g id="node13" class="node">
<title>param&#45;class&#45;util</title>
<g id="a_node13"><a xlink:href="https://github.com/rocq-community/trocq/blob/master/elpi/param-class-util.elpi" xlink:title="param&#45;class&#45;util">
<ellipse fill="none" stroke="black" cx="389" cy="-450" rx="91.19" ry="18"/>
<text text-anchor="middle" x="389" y="-445.32" font-family="Times,serif" font-size="14.00">param&#45;class&#45;util</text>
</a>
</g>
</g>
<!-- util&#45;rocq&#45;&gt;param&#45;class&#45;util -->
<g id="edge5" class="edge">
<title>util&#45;rocq&#45;&gt;param&#45;class&#45;util</title>
<path fill="none" stroke="black" d="M353.9,-517.4C359.85,-506.16 367.8,-491.11 374.63,-478.19"/>
<polygon fill="black" stroke="black" points="377.52,-480.21 379.1,-469.73 371.33,-476.94 377.52,-480.21"/>
</g>
<!-- database&#45;&gt;data -->
<g id="edge8" class="edge">
<title>database&#45;&gt;data</title>
<path fill="none" stroke="black" stroke-dasharray="5,2" d="M474.15,-516.97C479.01,-511.96 484.27,-506.44 489,-501.25 496.61,-492.9 504.72,-483.54 511.83,-475.19"/>
<polygon fill="black" stroke="black" points="514.32,-477.67 518.09,-467.77 508.97,-473.15 514.32,-477.67"/>
</g>
<!-- database&#45;&gt;param&#45;class&#45;util -->
<g id="edge9" class="edge">
<title>database&#45;&gt;param&#45;class&#45;util</title>
<path fill="none" stroke="black" stroke-dasharray="5,2" d="M442.91,-517C433.43,-505.39 420.76,-489.88 410.08,-476.81"/>
<polygon fill="black" stroke="black" points="413.07,-474.93 404.03,-469.4 407.64,-479.36 413.07,-474.93"/>
</g>
<!-- constraints -->
<g id="node6" class="node">
<title>constraints</title>
<g id="a_node6"><a xlink:href="https://github.com/rocq-community/trocq/blob/master/elpi/constraints/constraints.elpi" xlink:title="constraints">
<ellipse fill="none" stroke="black" cx="132" cy="-450" rx="67.52" ry="18"/>
<text text-anchor="middle" x="132" y="-445.32" font-family="Times,serif" font-size="14.00">constraints</text>
</a>
</g>
</g>
<!-- aterm&#45;&gt;constraints -->
<g id="edge10" class="edge">
<title>aterm&#45;&gt;constraints</title>
<path fill="none" stroke="black" d="M213.66,-518.98C198.77,-506.59 177.53,-488.9 160.44,-474.68"/>
<polygon fill="black" stroke="black" points="163.03,-472.28 153.1,-468.57 158.55,-477.66 163.03,-472.28"/>
</g>
<!-- vernac -->
<g id="node16" class="node">
<title>vernac</title>
<g id="a_node16"><a xlink:href="https://github.com/rocq-community/trocq/blob/master/elpi/vernac.elpi" xlink:title="vernac">
<ellipse fill="none" stroke="black" cx="389" cy="-378" rx="44.89" ry="18"/>
<text text-anchor="middle" x="389" y="-373.32" font-family="Times,serif" font-size="14.00">vernac</text>
</a>
</g>
</g>
<!-- aterm&#45;&gt;vernac -->
<g id="edge11" class="edge">
<title>aterm&#45;&gt;vernac</title>
<path fill="none" stroke="black" d="M238.02,-517.11C246.48,-495.09 263.73,-456.74 289,-432 305.11,-416.23 326.87,-403.95 345.98,-395.19"/>
<polygon fill="black" stroke="black" points="347.12,-398.51 354.88,-391.3 344.32,-392.1 347.12,-398.51"/>
</g>
<!-- constraints&#45;&gt;simple&#45;graph -->
<g id="edge12" class="edge">
<title>constraints&#45;&gt;simple&#45;graph</title>
<path fill="none" stroke="black" d="M131.26,-431.7C130.95,-424.41 130.57,-415.73 130.22,-407.54"/>
<polygon fill="black" stroke="black" points="133.72,-407.46 129.8,-397.62 126.73,-407.76 133.72,-407.46"/>
</g>
<!-- coercion -->
<g id="node7" class="node">
<title>coercion</title>
<g id="a_node7"><a xlink:href="https://github.com/rocq-community/trocq/blob/master/elpi/coercion.elpi" xlink:title="coercion">
<ellipse fill="none" stroke="black" cx="263" cy="-18" rx="53.31" ry="18"/>
<text text-anchor="middle" x="263" y="-13.32" font-family="Times,serif" font-size="14.00">coercion</text>
</a>
</g>
</g>
<!-- constraint&#45;graph -->
<g id="node9" class="node">
<title>constraint&#45;graph</title>
<g id="a_node9"><a xlink:href="https://github.com/rocq-community/trocq/blob/master/elpi/constraints/constraint-graph.elpi" xlink:title="constraint&#45;graph">
<ellipse fill="none" stroke="black" cx="111" cy="-306" rx="94.88" ry="18"/>
<text text-anchor="middle" x="111" y="-301.32" font-family="Times,serif" font-size="14.00">constraint&#45;graph</text>
</a>
</g>
</g>
<!-- simple&#45;graph&#45;&gt;constraint&#45;graph -->
<g id="edge13" class="edge">
<title>simple&#45;graph&#45;&gt;constraint&#45;graph</title>
<path fill="none" stroke="black" d="M124.55,-359.7C122.65,-352.32 120.39,-343.52 118.26,-335.25"/>
<polygon fill="black" stroke="black" points="121.66,-334.38 115.78,-325.57 114.88,-336.13 121.66,-334.38"/>
</g>
<!-- constraints&#45;impl -->
<g id="node10" class="node">
<title>constraints&#45;impl</title>
<g id="a_node10"><a xlink:href="https://github.com/rocq-community/trocq/blob/master/elpi/constraints/constraints-impl.elpi" xlink:title="constraints&#45;impl">
<ellipse fill="none" stroke="black" cx="112" cy="-234" rx="92.77" ry="18"/>
<text text-anchor="middle" x="112" y="-229.32" font-family="Times,serif" font-size="14.00">constraints&#45;impl</text>
</a>
</g>
</g>
<!-- constraint&#45;graph&#45;&gt;constraints&#45;impl -->
<g id="edge14" class="edge">
<title>constraint&#45;graph&#45;&gt;constraints&#45;impl</title>
<path fill="none" stroke="black" d="M111.25,-287.7C111.35,-280.41 111.48,-271.73 111.59,-263.54"/>
<polygon fill="black" stroke="black" points="115.09,-263.67 111.73,-253.62 108.09,-263.57 115.09,-263.67"/>
</g>
<!-- annot -->
<g id="node11" class="node">
<title>annot</title>
<g id="a_node11"><a xlink:href="https://github.com/rocq-community/trocq/blob/master/elpi/annot.elpi" xlink:title="annot">
<ellipse fill="none" stroke="black" cx="284" cy="-162" rx="39.63" ry="18"/>
<text text-anchor="middle" x="284" y="-157.32" font-family="Times,serif" font-size="14.00">annot</text>
</a>
</g>
</g>
<!-- constraints&#45;impl&#45;&gt;annot -->
<g id="edge15" class="edge">
<title>constraints&#45;impl&#45;&gt;annot</title>
<path fill="none" stroke="black" d="M150.6,-217.29C178.7,-205.85 216.63,-190.42 244.86,-178.93"/>
<polygon fill="black" stroke="black" points="245.82,-182.32 253.76,-175.31 243.18,-175.83 245.82,-182.32"/>
</g>
<!-- param -->
<g id="node14" class="node">
<title>param</title>
<g id="a_node14"><a xlink:href="https://github.com/rocq-community/trocq/blob/master/elpi/param.elpi" xlink:title="param">
<ellipse fill="none" stroke="black" cx="318" cy="-90" rx="43.32" ry="18"/>
<text text-anchor="middle" x="318" y="-85.33" font-family="Times,serif" font-size="14.00">param</text>
</a>
</g>
</g>
<!-- annot&#45;&gt;param -->
<g id="edge16" class="edge">
<title>annot&#45;&gt;param</title>
<path fill="none" stroke="black" d="M292.23,-144.05C296.03,-136.23 300.64,-126.75 304.9,-117.98"/>
<polygon fill="black" stroke="black" points="307.96,-119.67 309.18,-109.15 301.67,-116.62 307.96,-119.67"/>
</g>
<!-- data&#45;&gt;constraint&#45;graph -->
<g id="edge17" class="edge">
<title>data&#45;&gt;constraint&#45;graph</title>
<path fill="none" stroke="black" d="M520.88,-432.78C505.81,-412.19 476.87,-377.28 443,-360 402.74,-339.45 289.67,-324.37 206.63,-315.66"/>
<polygon fill="black" stroke="black" points="207.19,-312.2 196.89,-314.65 206.47,-319.16 207.19,-312.2"/>
</g>
<!-- data&#45;&gt;param -->
<g id="edge18" class="edge">
<title>data&#45;&gt;param</title>
<path fill="none" stroke="black" d="M530.38,-431.53C528.04,-404.75 524,-351.94 524,-307 524,-307 524,-307 524,-233 524,-156.94 427.62,-118.5 366.71,-101.79"/>
<polygon fill="black" stroke="black" points="367.81,-98.46 357.25,-99.31 366.03,-105.23 367.81,-98.46"/>
</g>
<!-- data&#45;&gt;vernac -->
<g id="edge19" class="edge">
<title>data&#45;&gt;vernac</title>
<path fill="none" stroke="black" d="M507.74,-437.13C485.61,-426.29 452.55,-410.11 426.93,-397.57"/>
<polygon fill="black" stroke="black" points="428.69,-394.53 418.17,-393.28 425.61,-400.82 428.69,-394.53"/>
</g>
<!-- param&#45;class&#45;util&#45;&gt;vernac -->
<g id="edge20" class="edge">
<title>param&#45;class&#45;util&#45;&gt;vernac</title>
<path fill="none" stroke="black" d="M389,-431.7C389,-424.41 389,-415.73 389,-407.54"/>
<polygon fill="black" stroke="black" points="392.5,-407.62 389,-397.62 385.5,-407.62 392.5,-407.62"/>
</g>
<!-- param&#45;&gt;coercion -->
<g id="edge21" class="edge">
<title>param&#45;&gt;coercion</title>
<path fill="none" stroke="black" d="M304.97,-72.41C298.39,-64.04 290.27,-53.71 282.93,-44.37"/>
<polygon fill="black" stroke="black" points="285.81,-42.36 276.88,-36.66 280.3,-46.69 285.81,-42.36"/>
</g>
<!-- tactic -->
<g id="node15" class="node">
<title>tactic</title>
<g id="a_node15"><a xlink:href="https://github.com/rocq-community/trocq/blob/master/elpi/tactic.elpi" xlink:title="tactic">
<ellipse fill="none" stroke="black" cx="373" cy="-18" rx="39.11" ry="18"/>
<text text-anchor="middle" x="373" y="-13.32" font-family="Times,serif" font-size="14.00">tactic</text>
</a>
</g>
</g>
<!-- param&#45;&gt;tactic -->
<g id="edge22" class="edge">
<title>param&#45;&gt;tactic</title>
<path fill="none" stroke="black" d="M331.03,-72.41C337.61,-64.04 345.73,-53.71 353.07,-44.37"/>
<polygon fill="black" stroke="black" points="355.7,-46.69 359.12,-36.66 350.19,-42.36 355.7,-46.69"/>
</g>
</g>
</svg>
